<?xml version="1.0" standalone="no"?>
<!DOCTYPE svg PUBLIC "-//W3C//DTD SVG 20010904//EN"
 "http://www.w3.org/TR/2001/REC-SVG-20010904/DTD/svg10.dtd">
<svg version="1.0" xmlns="http://www.w3.org/2000/svg"
 width="197.000000pt" height="197.000000pt" viewBox="0 0 197.000000 197.000000"
 preserveAspectRatio="xMidYMid meet">
<metadata>
Created by potrace 1.11, written by Peter Selinger 2001-2013
</metadata>
<g transform="translate(0.000000,197.000000) scale(0.100000,-0.100000)"
fill="#000000" stroke="none">
<path d="M1660 1929 c-204 -111 -371 -238 -545 -413 -168 -169 -255 -293 -321
-455 -10 -23 -11 -22 -38 30 -74 142 -157 210 -253 205 -65 -4 -112 -33 -163
-100 -122 -162 -170 -421 -113 -611 50 -167 211 -334 375 -389 43 -14 369 -88
447 -101 19 -3 37 -8 41 -10 4 -2 20 -6 36 -9 30 -6 112 -22 152 -30 27 -6 27
-7 3 76 -37 128 -53 258 -55 423 -1 147 6 284 19 345 3 14 10 52 15 85 27 150
94 372 154 508 14 31 25 58 23 60 -1 1 7 16 19 32 11 17 26 43 32 59 25 58
142 222 198 279 32 31 56 57 53 57 -2 -1 -38 -19 -79 -41z"/>
<path d="M1761 604 c0 -11 3 -14 6 -6 3 7 2 16 -1 19 -3 4 -6 -2 -5 -13z"/>
</g>
</svg>
